<svg width="1098" height="119" viewBox="0 0 1098 119" fill="none" xmlns="http://www.w3.org/2000/svg"><path d="M569.689 1h99.834l-20.922 44.3157c-8.921 16.8678-35.532 29.4417-70.143 29.4417H504.93l-20.46 43.0896h-56.3l34.611-72.991h129.83l6.305-13.1876H469.241C477.548 14.1876 504.621 1 540 1h29.689Zm313.495 0H753.509c-35.38 0-62.452 13.1876-70.759 30.6684h129.675l-6.308 13.1876H676.445l-14.153 29.9014h56.147l-94.143 43.0896h95.833l65.685-30.2088-14.305 30.2088c34.608 0 61.222-12.574 70.143-29.4419l20.612-43.5491 6.308-13.1876 3.537-7.6671L883.184 1ZM142.673 1h99.678l-23.843 50.6029-31.38 6.5936 24.15 8.2804-10.152 21.4681C192.512 105.119 165.592 118 130.674 118H1l20.4588-43.089 49.9928 13.1873H144.98l6.307-13.1873H77.7586L29.3038 58.1965l62.4526-13.1873h73.5286l6.306-13.1873H98.0633L35.7644 45.0092c.4616-1.0734 1.9996-4.2935 6.3066-13.1873C50.3776 14.3408 77.4508 1.15356 112.83 1.15356L142.673 1Zm712.822 116.847 34.611-72.991h56.299l-20.303 43.089h73.528l26.61-56.2766H896.569C907.644 10.5071 938.101 1 967.325 1H1097l-41.23 86.945h27.54c-8.62 17.021-35.53 29.902-70.45 29.902H855.495Zm-640.986 0 34.61-72.8378h129.828l6.308-13.1873H255.426c8.306-17.4811 35.379-30.66834 70.758-30.66834h129.675L421.248 74.1441s2-4.1403-6.304 13.1875c-8.307 17.4804-35.38 30.5154-70.608 30.6684l20.458-43.089h-73.527L270.808 118h-56.299v-.153Z" stroke="#333"/></svg>