<svg width="40" height="40" viewBox="0 0 40 40" xmlns="http://www.w3.org/2000/svg"><circle cx="20" cy="20" r="19.5"/><path clip-rule="evenodd" d="M30.0394 14.2583c.1597-.522 0-.9016-.7071-.9016h-2.3495c-.5931 0-.8668.3322-1.0265.6881 0 0-1.209 3.0367-2.897 5.0059-.5475.5694-.7984.7592-1.0949.7592-.1597 0-.365-.1898-.365-.7118v-4.8636c0-.6168-.1825-.9015-.6843-.9015h-3.6954c-.3649 0-.5931.2847-.5931.5694 0 .5931.844.7355.9353 2.3962v3.6062c0 .7829-.1369.9252-.4334.9252-.7984 0-2.7373-3.0605-3.9007-6.548-.2281-.688-.4562-.949-1.0493-.949H9.80619c-.68432 0-.79838.3322-.79838.688 0 .6406.79838 3.8672 3.71819 8.1376 1.9389 2.9182 4.699 4.484 7.1854 4.484 1.5055 0 1.688-.3559 1.688-.949v-2.2064c0-.7117.1369-.8303.6159-.8303.3422 0 .9581.1898 2.3495 1.5895 1.5968 1.6607 1.8705 2.4199 2.7601 2.4199h2.3496c.6843 0 1.0036-.3558.8212-1.0438-.2053-.6881-.9809-1.6845-1.9846-2.8707-.5475-.6643-1.3686-1.3998-1.6196-1.7557-.3421-.4745-.2509-.6643 0-1.0913-.0228 0 2.8514-4.223 3.1479-5.6465Z"/></svg>
