<svg width="45" height="63" viewBox="0 0 45 63" fill="none" xmlns="http://www.w3.org/2000/svg"><path d="M35.2701.326068c-.3439-.18021-.7369-.191302-1.1226-.191302-.4109 0-.7895.256768-1.074.558417L1.48223 34.1605c-.24656.2608-.47351.5879-.47351.9408 0 .353-.019557.7164.12292 1.0454.14248.329.37846.6092.67883.806.30036.1968.65195.3014 1.01139.3014H16.1222l.0026.0035-7.16439 23.2149c0 .3962-.10713.8223.0441 1.2085.15122.3863.42921.7101.78864.9186.35945.2086.77915.2299 1.19065.2299s.7906-.2567 1.0755-.5587l31.5913-33.4674c.2465-.2607.4735-.5878.4735-.9408 0-.3529.0195-.7163-.1229-1.0453-.1425-.329-.3785-.6092-.6789-.806-.3003-.1968-.6519-.3015-1.0114-.3015H29.0106l-.0026-.0035 7.1644-23.21095c0-.39668.107-.82325-.0447-1.20984-.1518-.386592-.4974-.751231-.8576-.959442Z" stroke="#0178F3" stroke-linecap="round" stroke-linejoin="round"/></svg>