<svg width="20" height="20" viewBox="0 0 20 20" xmlns="http://www.w3.org/2000/svg"><path d="m16.5502 19.0729-.0001-.0001-.0058.006c-.2906.2981-.6906.4193-1.1403.4212-2.2255-.0692-4.3672-1.1657-6.18981-2.349-2.98368-2.1723-5.69113-4.844-7.38484-8.04611C1.15299 7.70441.436717 6.05575.504399 4.66105l.000448-.00924.000106-.00924c.00588-.51119.144271-.91939.410042-1.16263l.008112-.00743.007777-.00777L3.7353.661736C3.93611.49578 4.06815.490931 4.13965.5055c.08511.017345.21517.089367.35283.295773L6.74376 5.07028c.13449.29696.06145.61745-.16167.8468L5.54542 6.95322l-.02747.02746-.0229.03137c-.11068.1516-.1999.35073-.20214.58675l-.00063.06595.0165.06386c.43523 1.68474 1.73018 3.18729 2.81743 4.18479.16212.1488.33468.3143.51499.4873.37425.3591.78195.7503 1.19927 1.0898.62903.5118 1.35573.9748 2.20523 1.1576.1205.0323.2719.0592.4309.052.1647-.0075.3854-.0548.5683-.2249l.0082-.0076.0079-.008 1.181-1.2011c.328-.2359.6899-.27.8828-.158l.1164.0676h.0193l3.9678 2.3425c.333.2121.3356.5623.1378.7689l-2.8159 2.7934Z"/></svg>
