<svg xmlns="http://www.w3.org/2000/svg" xmlns:xlink="http://www.w3.org/1999/xlink"><symbol id="hero-title-bg" viewBox="0 0 1098 119"><g fill="none"><path d="M569.689 1h99.834l-20.922 44.3157c-8.921 16.8678-35.532 29.4417-70.143 29.4417H504.93l-20.46 43.0896h-56.3l34.611-72.991h129.83l6.305-13.1876H469.241C477.548 14.1876 504.621 1 540 1h29.689Zm313.495 0H753.509c-35.38 0-62.452 13.1876-70.759 30.6684h129.675l-6.308 13.1876H676.445l-14.153 29.9014h56.147l-94.143 43.0896h95.833l65.685-30.2088-14.305 30.2088c34.608 0 61.222-12.574 70.143-29.4419l20.612-43.5491 6.308-13.1876 3.537-7.6671L883.184 1ZM142.673 1h99.678l-23.843 50.6029-31.38 6.5936 24.15 8.2804-10.152 21.4681C192.512 105.119 165.592 118 130.674 118H1l20.4588-43.089 49.9928 13.1873H144.98l6.307-13.1873H77.7586L29.3038 58.1965l62.4526-13.1873h73.5286l6.306-13.1873H98.0633L35.7644 45.0092c.4616-1.0734 1.9996-4.2935 6.3066-13.1873C50.3776 14.3408 77.4508 1.15356 112.83 1.15356L142.673 1Zm712.822 116.847 34.611-72.991h56.299l-20.303 43.089h73.528l26.61-56.2766H896.569C907.644 10.5071 938.101 1 967.325 1H1097l-41.23 86.945h27.54c-8.62 17.021-35.53 29.902-70.45 29.902H855.495Zm-640.986 0 34.61-72.8378h129.828l6.308-13.1873H255.426c8.306-17.4811 35.379-30.66834 70.758-30.66834h129.675L421.248 74.1441s2-4.1403-6.304 13.1875c-8.307 17.4804-35.38 30.5154-70.608 30.6684l20.458-43.089h-73.527L270.808 118h-56.299v-.153Z" stroke="#333"/></g></symbol><symbol id="icon-telegram" viewBox="0 0 40 40"><circle cx="20" cy="20" r="19.5"/><path d="m10.797 19.677-.0084-.0033-.0085-.0029c-.0052-.0018-.006-.0023-.0091-.0072-.0055-.0088-.0132-.0283-.0132-.056 0-.0278.0077-.0473.0132-.056.0031-.005.0039-.0054.0091-.0073l.0115-.0039.0112-.0045 17.8931-7.1412-2.0542 2.0052-9.9434 6.2074c-.6499.2972-.8721 1.0761-.5541 1.7009l.9429 3.5671c.0453.1813.1456.3449.3025.457.1551.1108.3347.1488.4985.1335.298-.028.6426-.2624.6622-.6769l.237-1.9565.0037-.03v-.0302c0-.2104.1223-.4173.334-.6368l8.1456-7.9519c.0245-.0179.0436-.0339.0535-.0421.0011-.0009.0021-.0017.0029-.0024.0341-.0282.0743-.0632.1178-.1021.0877-.0783.2009-.183.3288-.3031.2563-.2409.5797-.5521.8923-.8572.3123-.3048.6162-.6062.8331-.8273.1073-.1093.1981-.2039.2585-.2707.0255-.0282.0623-.0697.0906-.1093.0077-.0108.0226-.0322.0376-.0598.0075-.0138.0196-.0375.031-.0681.0092-.0248.0307-.0872.0317-.1701.001-.0878-.0233-.258-.177-.3884-.0048-.004-.0096-.0079-.0144-.0117l.4666-.1863c.0029.0019.0066.0048.011.009.0128.0123.0242.0296.0306.0482.0059.017.0063.0307.0045.0409-.0001.0003-.0001.0007-.0002.0011l-3.5162 17.314-.0008.0044c-.003.0154-.0079.022-.0107.0252-.0038.0043-.0101.0091-.0192.0125-.0094.0034-.0191.0042-.0275.0031-.0073-.0011-.0154-.0038-.025-.0112v-.0001l-.0055-.0041-4.7135-3.5443c-.462-.3555-1.1427-.4215-1.6012.0297l-2.6105 2.2036c-.0199.0142-.0406.0229-.0595.0271-.0079.0018-.0149.0027-.0207.003l-.0012-.0064-.0073-.0242-1.8384-6.1027-.0707-.2345-.2286-.0879-4.716-1.8143Z"/></symbol><symbol id="icon-vk" viewBox="0 0 40 40"><circle cx="20" cy="20" r="19.5"/><path clip-rule="evenodd" d="M30.0394 14.2583c.1597-.522 0-.9016-.7071-.9016h-2.3495c-.5931 0-.8668.3322-1.0265.6881 0 0-1.209 3.0367-2.897 5.0059-.5475.5694-.7984.7592-1.0949.7592-.1597 0-.365-.1898-.365-.7118v-4.8636c0-.6168-.1825-.9015-.6843-.9015h-3.6954c-.3649 0-.5931.2847-.5931.5694 0 .5931.844.7355.9353 2.3962v3.6062c0 .7829-.1369.9252-.4334.9252-.7984 0-2.7373-3.0605-3.9007-6.548-.2281-.688-.4562-.949-1.0493-.949H9.80619c-.68432 0-.79838.3322-.79838.688 0 .6406.79838 3.8672 3.71819 8.1376 1.9389 2.9182 4.699 4.484 7.1854 4.484 1.5055 0 1.688-.3559 1.688-.949v-2.2064c0-.7117.1369-.8303.6159-.8303.3422 0 .9581.1898 2.3495 1.5895 1.5968 1.6607 1.8705 2.4199 2.7601 2.4199h2.3496c.6843 0 1.0036-.3558.8212-1.0438-.2053-.6881-.9809-1.6845-1.9846-2.8707-.5475-.6643-1.3686-1.3998-1.6196-1.7557-.3421-.4745-.2509-.6643 0-1.0913-.0228 0 2.8514-4.223 3.1479-5.6465Z"/></symbol><symbol id="level" viewBox="0 0 19 18"><path d="M.5 17.5v-13h4v13h-4ZM7.5 17.5v-9h4v9h-4ZM14.5 17.5V.5h4v17h-4Z"/></symbol><symbol id="person" viewBox="0 0 20 22"><path d="M18.6693 20.75v-2.1667c0-2.3932-1.9401-4.3333-4.3334-4.3333H5.66927c-2.39323 0-4.33333 1.9401-4.33333 4.3333V20.75" stroke-linecap="round" stroke-linejoin="round"/><path clip-rule="evenodd" d="M9.9974 9.91667c2.3932 0 4.3333-1.9401 4.3333-4.33334 0-2.39323-1.9401-4.33333-4.3333-4.33333-2.39324 0-4.33334 1.9401-4.33334 4.33333 0 2.39324 1.9401 4.33334 4.33334 4.33334Z" stroke-linecap="round" stroke-linejoin="round"/></symbol><symbol id="phone" viewBox="0 0 20 20"><path d="m16.5502 19.0729-.0001-.0001-.0058.006c-.2906.2981-.6906.4193-1.1403.4212-2.2255-.0692-4.3672-1.1657-6.18981-2.349-2.98368-2.1723-5.69113-4.844-7.38484-8.04611C1.15299 7.70441.436717 6.05575.504399 4.66105l.000448-.00924.000106-.00924c.00588-.51119.144271-.91939.410042-1.16263l.008112-.00743.007777-.00777L3.7353.661736C3.93611.49578 4.06815.490931 4.13965.5055c.08511.017345.21517.089367.35283.295773L6.74376 5.07028c.13449.29696.06145.61745-.16167.8468L5.54542 6.95322l-.02747.02746-.0229.03137c-.11068.1516-.1999.35073-.20214.58675l-.00063.06595.0165.06386c.43523 1.68474 1.73018 3.18729 2.81743 4.18479.16212.1488.33468.3143.51499.4873.37425.3591.78195.7503 1.19927 1.0898.62903.5118 1.35573.9748 2.20523 1.1576.1205.0323.2719.0592.4309.052.1647-.0075.3854-.0548.5683-.2249l.0082-.0076.0079-.008 1.181-1.2011c.328-.2359.6899-.27.8828-.158l.1164.0676h.0193l3.9678 2.3425c.333.2121.3356.5623.1378.7689l-2.8159 2.7934Z"/></symbol><symbol id="search" viewBox="0 0 22 22"><path clip-rule="evenodd" d="M9.91667 18.5833c4.78643 0 8.66663-3.8802 8.66663-8.66663 0-4.78647-3.8802-8.66667-8.66663-8.66667C5.1302 1.25 1.25 5.1302 1.25 9.91667c0 4.78643 3.8802 8.66663 8.66667 8.66663Z" stroke-linecap="round" stroke-linejoin="round"/><path d="m20.7516 20.7501-4.7125-4.7125" stroke-linecap="round" stroke-linejoin="round"/></symbol><symbol id="shopping-cart" viewBox="0 0 50 50"><rect x=".5" y=".5" width="49" height="49" rx="24.5"/><path clip-rule="evenodd" d="M21 35c1.1046 0 2-.8954 2-2s-.8954-2-2-2-2 .8954-2 2 .8954 2 2 2ZM31 35c1.1046 0 2-.8954 2-2s-.8954-2-2-2-2 .8954-2 2 .8954 2 2 2Z" stroke-linecap="round" stroke-linejoin="round"/><path d="M18.2455 19.3332H34l-1.5273 7.2712c-.1716.8235-.9376 1.4114-1.8182 1.3953h-9.609c-.9187.0074-1.6988-.6396-1.8182-1.508l-1.3818-9.9837c-.1186-.8618-.8883-1.5067-1.8-1.508H14" stroke-linecap="round" stroke-linejoin="round"/></symbol></svg>