<svg width="132" height="32" viewBox="0 0 132 32" fill="none" xmlns="http://www.w3.org/2000/svg"><path d="M35.7612 23.1256c1.6111 0 2.4507-.4902 2.4507-1.4483 0-.958-.8396-1.4482-2.4507-1.4482h-6.3989v2.8965h6.3989Zm-6.3989 8.6449h-2.9271V17.3549h9.8025c3.2449 0 4.9013 1.4259 4.9013 4.3224 0 2.8742-1.6564 4.3225-4.9013 4.3225h-6.8754v5.7707Zm-26.41245 0H0V17.3549h2.94985v14.4156ZM96.9592 17.3549h2.9272v9.603c0 3.2084-1.6338 4.8126-4.9013 4.8126h-4.9013c-3.2675 0-4.9013-1.6042-4.9013-4.8126v-9.603h2.9499v9.2242c0 1.5374.7488 2.3172 2.3372 2.3172h4.107c1.5657 0 2.3599-.7798 2.3599-2.3172l.0227-9.2242Zm-25.9586 5.7707c1.611 0 2.4506-.4902 2.4506-1.4483 0-.958-.8169-1.4482-2.4506-1.4482h-6.3989v2.8965h6.3989Zm-4.9013 2.8742h-1.4976v5.7707h-2.9045V17.3549h9.8026c3.2448 0 4.9012 1.4259 4.9012 4.3224 0 2.8742-1.6564 4.3225-4.9012 4.3225h-.9984l6.8527 5.7707H72.952l-6.8527-5.7707Zm16.1561 5.7707h-2.9499V17.3549h2.9499v14.4156Zm18.7206.0223 4.833-14.4379h2.927l-4.811 14.4379h-2.949Zm14.703 0h-2.949l4.81-14.4379h2.95l-4.811 14.4379Zm-8.804 0 4.811-14.4379h2.927l-4.811 14.4156-2.927.0223Zm-101.90564.0446 4.81052-14.438h2.94982l-4.81049 14.438H4.96936Zm14.68114 0h-2.9498l4.8105-14.438h2.9272l-4.7879 14.438Zm-8.8041 0 4.8105-14.438h2.9271l-4.8105 14.438h-2.9271ZM43.8247 32v-2.92h14.6837V32H43.8247ZM43.8247 23.2175h14.6837v2.9199H43.8247v-2.9199ZM43.8247 17.3775h14.6837v2.92H43.8247v-2.92ZM.855478 5.47921c-.120489 0-.184751-.02011-.192783-.06034-.008033-.04023-.012049-.10862-.012049-.20517V.555162C.658678.490796.706874.458612.795233.458612H1.91579c.50606 0 .92376.084482 1.25309.253444.32934.160917.57032.418384.72294.772404.16066.34597.24098.80056.24098 1.36376 0 .49885-.06024.91723-.18073 1.25515-.11246.32988-.27311.5954-.48196.79654-.20082.20115-.43376.35-.69884.44655-.26508.0885-.54622.13275-.84343.13275H.855478ZM.518107 8.90673V.651713c0-.064367.012049-.112642.036147-.144826C.586384.474704.642613.458612.72294.458612h.57835c.09639 0 .15262.032184.16869.09655.01606.064367.0241.096551.0241.096551V8.71364c0 .06436-.01607.10861-.0482.13275-.0241.02414-.10443.04023-.24098.04828-.12852.00804-.357454.01206-.686793.01206Zm.951873-4.33268h.55425c.22492 0 .40967-.06034.55425-.18103.15262-.12068.2691-.31378.34943-.5793.08032-.27355.12049-.63562.12049-1.08618 0-.28161-.02812-.52701-.08435-.7362-.05623-.21723-.15663-.38217-.30122-.49482-.13656-.12068-.32533-.18103-.56631-.18103h-.62654v3.25856ZM6.4143 9.02742c-.22491 0-.4418-.02011-.65065-.06034-.20081-.03218-.38155-.10862-.5422-.22931-.16065-.12873-.28918-.31378-.38557-.55516-.09639-.24137-.14459-.57125-.14459-.98964 0-.41838.04418-.7563.13254-1.01377.08836-.26551.20885-.46666.36147-.60344.15262-.14482.32533-.24137.51811-.28965.19278-.04827.38958-.07241.5904-.07241.12852 0 .27713.01207.44581.03621.17672.02413.32533.06436.44582.12068v-.95343c0-.1931-.03214-.33792-.0964-.43447-.05623-.1046-.14057-.17701-.25303-.21724-.10442-.04828-.23696-.07241-.39761-.07241-.31328 0-.6145.02816-.90368.08448-.28917.05632-.52212.12069-.69884.1931-.05623-.09655-.09237-.1931-.10844-.28965-.01606-.1046-.0241-.19713-.0241-.27758 0-.05632.00804-.11667.0241-.18103.0241-.06437.06025-.11265.10844-.14483.10443-.06437.32131-.13276.65065-.20517.32934-.08046.72294-.12069 1.1808-.12069.52212 0 .89966.10862 1.1326.32586.24098.21724.36147.59941.36147 1.14653v.63965c0 .45861-.00401.92124-.01205 1.3879 0 .45861-.00401.89309-.01204 1.30343-.00804.40229-.0241.7563-.0482 1.06205-.16065.09655-.38155.18907-.6627.27758-.28114.0885-.61851.13275-1.01211.13275Zm.09639-.82067c.12852 0 .25303-.02012.37352-.06035.12049-.04022.20483-.0885.25303-.14482.01606-.12873.0241-.30574.0241-.53103.00803-.22528.01205-.46263.01205-.71205.00803-.24942.01205-.48275.01205-.69999-.08033-.04023-.17672-.06839-.28918-.08448-.10443-.01609-.1968-.02414-.27713-.02414-.12852 0-.24901.01609-.36147.04828-.10442.02413-.1968.08046-.27712.16896-.08033.08046-.14459.20115-.19279.36206-.04819.16092-.07229.37413-.07229.63965 0 .21723.01606.39424.04819.53102.04017.13678.0964.2454.16869.32586.07229.07241.15664.12068.25303.14482.09639.02414.20483.03621.32532.03621ZM10.3364 9.02742c-.249 0-.48192-.03218-.69881-.09655-.20885-.05632-.38155-.13678-.5181-.24137-.12853-.11264-.19279-.23333-.19279-.36206 0-.06437.01205-.15288.03615-.26552.03213-.11264.08033-.22126.14459-.32585.16868.12873.35745.23735.5663.32585.21688.08046.42976.12069.63856.12069.1446 0 .2852-.02414.4218-.07241.1445-.05632.265-.1569.3614-.30172.0964-.14483.1446-.35804.1446-.63964 0-.34598-.0803-.5954-.241-.74827-.1606-.15287-.3896-.2293-.6868-.2293h-.48192c-.16066 0-.24098-.08851-.24098-.26552v-.53102h1.0242c.1606-.16092.2691-.32183.3253-.48275.0642-.16896.0964-.34597.0964-.53103 0-.24942-.0603-.44252-.1808-.57929-.1124-.14483-.2932-.21724-.5422-.21724-.2008 0-.38955.04425-.56627.13275-.16868.08046-.3213.17701-.45786.28965-.06426-.0885-.11647-.177-.15663-.26551-.04017-.09655-.06025-.18103-.06025-.25344 0-.09655.04418-.20115.13254-.31379.09639-.11264.245-.20919.44581-.28965.20082-.0885.46586-.13276.79526-.13276.5301 0 .9197.12069 1.1687.36207.249.24137.3735.57125.3735.98963 0 .2977-.0602.57528-.1807.83275-.1124.25746-.2731.4747-.4819.65171.2972.15287.5221.34999.6747.59137.1526.23333.2289.55516.2289.9655 0 .30574-.0442.57527-.1325.8086-.0884.23333-.2169.43046-.3856.59137-.1606.16092-.3574.28161-.5904.36206-.2249.08046-.486.12069-.7832.12069ZM13.6027 11.2843c-.1687 0-.2892-.0322-.3615-.0966-.0723-.0563-.1085-.1649-.1085-.3258V3.23442c.241-.15287.5141-.26953.8194-.34999.3052-.0885.6185-.13276.9398-.13276.4016 0 .747.07242 1.0362.21724.2972.13678.5261.39022.6868.76033.1607.36207.241.87298.241 1.53273 0 .64367-.0362 1.19079-.1085 1.64135-.0723.44252-.1686.80459-.2891 1.08619-.1205.2816-.2611.49884-.4218.65171-.1526.14483-.3132.2454-.4819.30172-.1607.05632-.3253.08448-.494.08448-.2169 0-.4097-.03218-.5784-.09655-.1606-.06436-.2851-.14482-.3735-.24137v2.5103c-.0803.0241-.1647.0442-.253.0603-.0884.0161-.1727.0242-.253.0242Zm1.1567-3.1379c.0963 0 .2008-.02816.3132-.08448.1125-.05632.2209-.17701.3254-.36206.1124-.18505.2008-.46263.265-.83274.0723-.37011.1085-.86895.1085-1.49653 0-.48275-.0362-.84883-.1085-1.09825-.0642-.25747-.1646-.43046-.3012-.51896-.1365-.09655-.3093-.14482-.5181-.14482-.2731 0-.5181.07643-.735.2293v3.91028c.0884.14482.1888.24942.3012.31378.1125.05632.229.08448.3495.08448ZM19.2517 9.02742c-.225 0-.4418-.02011-.6507-.06034-.2008-.03218-.3815-.10862-.5422-.22931-.1606-.12873-.2892-.31378-.3856-.55516-.0964-.24137-.1446-.57125-.1446-.98964 0-.41838.0442-.7563.1326-1.01377.0883-.26551.2088-.46666.3615-.60344.1526-.14482.3253-.24137.5181-.28965.1927-.04827.3895-.07241.5904-.07241.1285 0 .2771.01207.4458.03621.1767.02413.3253.06436.4458.12068v-.95343c0-.1931-.0321-.33792-.0964-.43447-.0562-.1046-.1406-.17701-.253-.21724-.1045-.04828-.237-.07241-.3976-.07241-.3133 0-.6145.02816-.9037.08448-.2892.05632-.5221.12069-.6989.1931-.0562-.09655-.0923-.1931-.1084-.28965-.0161-.1046-.0241-.19713-.0241-.27758 0-.05632.008-.11667.0241-.18103.0241-.06437.0602-.11265.1084-.14483.1045-.06437.3213-.13276.6507-.20517.3293-.08046.7229-.12069 1.1808-.12069.5221 0 .8996.10862 1.1326.32586.241.21724.3615.59941.3615 1.14653v.63965c0 .45861-.0041.92124-.0121 1.3879 0 .45861-.004.89309-.012 1.30343-.0081.40229-.0241.7563-.0482 1.06205-.1607.09655-.3816.18907-.6627.27758-.2812.0885-.6185.13275-1.0121.13275Zm.0963-.82067c.1286 0 .2531-.02012.3736-.06035.1205-.04022.2048-.0885.253-.14482.0161-.12873.0241-.30574.0241-.53103.008-.22528.012-.46263.012-.71205.0081-.24942.0121-.48275.0121-.69999-.0803-.04023-.1767-.06839-.2892-.08448-.1044-.01609-.1968-.02414-.2771-.02414-.1285 0-.249.01609-.3615.04828-.1044.02413-.1968.08046-.2771.16896-.0803.08046-.1446.20115-.1928.36206-.0482.16092-.0723.37413-.0723.63965 0 .21723.0161.39424.0482.53102.0402.13678.0964.2454.1687.32586.0723.07241.1566.12068.253.14482.0964.02414.2049.03621.3253.03621ZM23.7642 9.02742c-.482 0-.8635-.09655-1.1447-.28965-.2731-.20114-.4659-.54711-.5783-1.03791-.1044-.49884-.1567-1.19078-.1567-2.07582V4.45337c0-.78045.0442-1.40802.1326-1.88273.0883-.4747.241-.84883.4578-1.12239.2169-.27356.5222-.486773.9158-.639644L25.5113 0c.0803.217238.1325.3862.1566.506887.0322.112642.0402.197123.0241.253444-.016.056321-.0562.112642-.1205.168963-.0562.05632-.1566.108616-.3012.156896l-1.4459.50688c-.3132.1046-.5582.25345-.735.44655-.1686.1931-.2891.45057-.3614.7724-.0723.32183-.1125.74021-.1205 1.25515.1606-.45861.3494-.79252.5663-1.00171.2169-.20919.5261-.31379.9278-.31379.3614 0 .6627.09655.9036.28965.249.18506.4338.49482.5543.9293.1285.42643.1928 1.00975.1928 1.74997 0 .78849-.0763 1.42813-.229 1.91893-.1526.48275-.3775.83676-.6747 1.06205-.2972.21723-.6587.32585-1.0844.32585Zm.012-.83274c.1366 0 .2611-.03218.3736-.09655.1124-.07241.2088-.1931.2891-.36206.0804-.17701.1406-.41839.1808-.72413.0482-.31379.0723-.70401.0723-1.17067 0-.58734-.0322-1.04193-.0964-1.36376-.0563-.32988-.1446-.55919-.2651-.68792-.1205-.13678-.2812-.20517-.482-.20517-.1928 0-.3574.07241-.494.21724-.1365.13677-.245.3701-.3253.69998-.0723.32988-.1084.78447-.1084 1.36377 0 .64367.0321 1.13446.0964 1.47239.0642.33792.1606.56723.2891.68792.1285.11264.2852.16896.4699.16896ZM28.3271 9.02742c-.3053 0-.5784-.04023-.8193-.12069-.233-.07241-.4298-.21723-.5904-.43447-.1607-.21724-.2812-.53102-.3615-.94136-.0803-.41839-.1205-.9655-.1205-1.64135 0-1.10228.1767-1.89882.5301-2.38961.3535-.49885.8435-.74827 1.47-.74827.4258 0 .7752.08851 1.0483.26552.2811.17701.49.49079.6265.94136.1366.45057.2049 1.08216.2049 1.89479 0 1.12642-.1687 1.93905-.5061 2.43789-.3374.49079-.8314.73619-1.482.73619Zm.0241-.83274c.1767 0 .3293-.06034.4578-.18103.1366-.12874.245-.36206.3254-.69999.0803-.33792.1205-.82067.1205-1.44825 0-.64367-.0322-1.12642-.0964-1.44825-.0643-.32988-.1567-.55114-.2772-.66378-.1205-.11264-.2811-.16896-.4819-.16896-.1767 0-.3334.06436-.4699.1931-.1366.12069-.245.34999-.3254.68792-.0722.33792-.1084.82067-.1084 1.44825 0 .49079.0201.88906.0603 1.1948.0401.30574.0923.53907.1566.69999.0723.15287.1647.25747.2771.31379.1125.04827.233.07241.3615.07241ZM31.9796 8.90673V3.71717h-1.3133c0-.24942.004-.43447.012-.55516.0081-.12069.0281-.19712.0603-.2293.0321-.04023.0803-.06035.1446-.06035h3.3857c0 .24942-.004.4385-.012.56723-.008.12069-.0281.19713-.0603.22931-.0241.03218-.0723.04827-.1445.04827h-1.0965v4.99647c0 .06436-.0121.10861-.0362.13275-.0241.02414-.1044.04023-.2409.04828-.1366.00804-.3695.01206-.6989.01206ZM36.4073 9.02742c-.2249 0-.4418-.02011-.6506-.06034-.2008-.03218-.3816-.10862-.5422-.22931-.1607-.12873-.2892-.31378-.3856-.55516-.0964-.24137-.1446-.57125-.1446-.98964 0-.41838.0442-.7563.1326-1.01377.0883-.26551.2088-.46666.3615-.60344.1526-.14482.3253-.24137.5181-.28965.1927-.04827.3895-.07241.5904-.07241.1285 0 .2771.01207.4458.03621.1767.02413.3253.06436.4458.12068v-.95343c0-.1931-.0321-.33792-.0964-.43447-.0562-.1046-.1406-.17701-.253-.21724-.1045-.04828-.237-.07241-.3977-.07241-.3132 0-.6145.02816-.9036.08448-.2892.05632-.5222.12069-.6989.1931-.0562-.09655-.0923-.1931-.1084-.28965-.0161-.1046-.0241-.19713-.0241-.27758 0-.05632.008-.11667.0241-.18103.0241-.06437.0602-.11265.1084-.14483.1045-.06437.3213-.13276.6507-.20517.3293-.08046.7229-.12069 1.1808-.12069.5221 0 .8996.10862 1.1326.32586.241.21724.3614.59941.3614 1.14653v.63965c0 .45861-.004.92124-.012 1.3879 0 .45861-.004.89309-.012 1.30343-.0081.40229-.0241.7563-.0482 1.06205-.1607.09655-.3816.18907-.6627.27758-.2812.0885-.6186.13275-1.0122.13275Zm.0964-.82067c.1286 0 .2531-.02012.3736-.06035.1204-.04022.2048-.0885.253-.14482.0161-.12873.0241-.30574.0241-.53103.008-.22528.012-.46263.012-.71205.0081-.24942.0121-.48275.0121-.69999-.0803-.04023-.1767-.06839-.2892-.08448-.1044-.01609-.1968-.02414-.2771-.02414-.1285 0-.249.01609-.3615.04828-.1044.02413-.1968.08046-.2771.16896-.0803.08046-.1446.20115-.1928.36206-.0482.16092-.0723.37413-.0723.63965 0 .21723.0161.39424.0482.53102.0402.13678.0964.2454.1687.32586.0723.07241.1566.12068.253.14482.0964.02414.2048.03621.3253.03621ZM39.2089 8.90673V3.06546c0-.06437.0121-.10862.0362-.13275.0241-.02414.1044-.04023.241-.04828.1445-.00805.3815-.01207.7108-.01207v2.59478h1.5785V3.06546c0-.06437.012-.10862.0361-.13275.0321-.02414.1165-.04023.253-.04828.1446-.00805.3776-.01207.6989-.01207v5.84128c0 .06436-.0121.10861-.0362.13275-.0241.02414-.1044.04023-.2409.04828-.1366.00804-.3736.01206-.7109.01206V6.31195h-1.5785v2.40169c0 .06436-.012.10861-.0361.13275-.0241.02414-.1044.04023-.241.04828-.1365.00804-.3735.01206-.7109.01206ZM45.7181 9.02742c-.3052 0-.5783-.04023-.8193-.12069-.233-.07241-.4298-.21723-.5904-.43447-.1607-.21724-.2812-.53102-.3615-.94136-.0803-.41839-.1205-.9655-.1205-1.64135 0-1.10228.1767-1.89882.5302-2.38961.3534-.49885.8434-.74827 1.47-.74827.4257 0 .7751.08851 1.0482.26552.2812.17701.49.49079.6266.94136.1365.45057.2048 1.08216.2048 1.89479 0 1.12642-.1687 1.93905-.5061 2.43789-.3373.49079-.8313.73619-1.482.73619Zm.0241-.83274c.1767 0 .3294-.06034.4579-.18103.1365-.12874.245-.36206.3253-.69999.0803-.33792.1205-.82067.1205-1.44825 0-.64367-.0321-1.12642-.0964-1.44825-.0643-.32988-.1566-.55114-.2771-.66378-.1205-.11264-.2812-.16896-.482-.16896-.1767 0-.3334.06436-.4699.1931-.1366.12069-.245.34999-.3253.68792-.0723.33792-.1085.82067-.1085 1.44825 0 .49079.0201.88906.0603 1.1948.0401.30574.0924.53907.1566.69999.0723.15287.1647.25747.2771.31379.1125.04827.233.07241.3615.07241ZM50.4796 8.90673V3.06546c0-.05632.0201-.10057.0603-.13275.0482-.04023.1365-.06035.2651-.06035h1.1085c.3132 0 .6145.03621.9036.10862.2892.06437.5262.19712.7109.39827.1848.1931.2771.49079.2771.89309 0 .25746-.0401.47872-.1204.66378-.0804.18505-.1768.3339-.2892.44654-.1044.1046-.2169.18506-.3374.24138-.1124.05632-.2048.0885-.2771.09655.0642.00804.1285.02011.1928.0362.0723.00805.1365.02012.1928.03621.0481.01609.1164.04425.2048.08448.0964.03218.1968.09253.3012.18103.1044.08046.1928.19712.2651.34999.0803.14483.1205.33793.1205.5793 0 .36207-.0763.68792-.229.97757-.1526.28965-.3855.51896-.6988.68792-.3133.16896-.7149.25344-1.2049.25344h-1.4459Zm1.458-.79653c.3213 0 .5703-.09655.747-.28965.1847-.1931.2771-.4908.2771-.89309 0-.1931-.0321-.34999-.0964-.47068-.0562-.12069-.1526-.20919-.2891-.26551-.1366-.05632-.3254-.08448-.5663-.08448-.1205 0-.233.00402-.3374.01206-.0964.00805-.1808.01207-.2531.01207v1.96721c.0804.00805.1687.01207.2651.01207h.2531Zm-.5182-2.6672c.0804.00805.1607.01207.241.01207h.2651c.1526 0 .2932-.03218.4217-.09655.1285-.06436.233-.16896.3133-.31378.0884-.15287.1325-.35402.1325-.60344 0-.1931-.0281-.34195-.0843-.44654-.0482-.11265-.1165-.1931-.2048-.24138-.0804-.05632-.1768-.0885-.2892-.09655-.1125-.00805-.2249-.01207-.3374-.01207h-.2169c-.0642 0-.1205.00402-.1687.01207h-.0723V5.443ZM132 12.9953c0 2.3805-1.819 4.2474-4.206 4.2474-2.341 0-4.228-1.8669-4.228-4.2474 0-2.3337 1.864-4.20068 4.228-4.20068 2.387 0 4.206 1.86698 4.206 4.20068Zm-7.366 0c0 1.867 1.342 3.3606 3.206 3.3606 1.796 0 3.114-1.4936 3.114-3.3372 0-1.867-1.318-3.38393-3.137-3.38393-1.841 0-3.183 1.51693-3.183 3.36053Zm2.524 2.1938h-.955v-4.2008c.364-.07.909-.1167 1.568-.1167.773 0 1.114.1167 1.433.3034.227.1867.409.5135.409.9335 0 .4668-.341.8168-.841.9802v.0467c.409.1633.614.4667.75 1.0268.114.6301.205.8868.296 1.0502h-1.023c-.114-.1634-.205-.5368-.319-1.0268-.068-.4668-.318-.6768-.841-.6768h-.455l-.022 1.6803Zm.022-2.3805h.455c.523 0 .955-.1866.955-.6067 0-.3734-.273-.6301-.864-.6301-.25 0-.432.0233-.523.0466v1.1902h-.023Z" fill="#333"/></svg>