<svg width="40" height="40" viewBox="0 0 40 40" xmlns="http://www.w3.org/2000/svg"><circle cx="20" cy="20" r="19.5"/><path d="m10.797 19.677-.0084-.0033-.0085-.0029c-.0052-.0018-.006-.0023-.0091-.0072-.0055-.0088-.0132-.0283-.0132-.056 0-.0278.0077-.0473.0132-.056.0031-.005.0039-.0054.0091-.0073l.0115-.0039.0112-.0045 17.8931-7.1412-2.0542 2.0052-9.9434 6.2074c-.6499.2972-.8721 1.0761-.5541 1.7009l.9429 3.5671c.0453.1813.1456.3449.3025.457.1551.1108.3347.1488.4985.1335.298-.028.6426-.2624.6622-.6769l.237-1.9565.0037-.03v-.0302c0-.2104.1223-.4173.334-.6368l8.1456-7.9519c.0245-.0179.0436-.0339.0535-.0421.0011-.0009.0021-.0017.0029-.0024.0341-.0282.0743-.0632.1178-.1021.0877-.0783.2009-.183.3288-.3031.2563-.2409.5797-.5521.8923-.8572.3123-.3048.6162-.6062.8331-.8273.1073-.1093.1981-.2039.2585-.2707.0255-.0282.0623-.0697.0906-.1093.0077-.0108.0226-.0322.0376-.0598.0075-.0138.0196-.0375.031-.0681.0092-.0248.0307-.0872.0317-.1701.001-.0878-.0233-.258-.177-.3884-.0048-.004-.0096-.0079-.0144-.0117l.4666-.1863c.0029.0019.0066.0048.011.009.0128.0123.0242.0296.0306.0482.0059.017.0063.0307.0045.0409-.0001.0003-.0001.0007-.0002.0011l-3.5162 17.314-.0008.0044c-.003.0154-.0079.022-.0107.0252-.0038.0043-.0101.0091-.0192.0125-.0094.0034-.0191.0042-.0275.0031-.0073-.0011-.0154-.0038-.025-.0112v-.0001l-.0055-.0041-4.7135-3.5443c-.462-.3555-1.1427-.4215-1.6012.0297l-2.6105 2.2036c-.0199.0142-.0406.0229-.0595.0271-.0079.0018-.0149.0027-.0207.003l-.0012-.0064-.0073-.0242-1.8384-6.1027-.0707-.2345-.2286-.0879-4.716-1.8143Z"/></svg>
