<svg width="57" height="57" viewBox="0 0 57 57" fill="none" xmlns="http://www.w3.org/2000/svg"><path d="M23.8635 2.65715c2.4016-2.92996 6.8714-2.929964 9.2729-.00001l3.0617 3.73535c1.2917 1.57589 3.2092 2.50255 5.2434 2.53324l4.8197.07271c3.7789.057 6.5686 3.56326 5.7822 7.27676l-1.0019 4.7306c-.4225 1.9951.0507 4.0759 1.2945 5.6899l2.9484 3.826c2.3139 3.0027 1.3177 7.3773-2.0637 9.0744l-4.311 2.1637c-1.8192.913-3.1456 2.5822-3.6277 4.5637l-1.1432 4.6983c-.8971 3.6872-4.9255 5.6316-8.3548 4.038l-4.3739-2.0326c-1.8458-.8578-3.9744-.8578-5.8202 0l-4.3739 2.0326c-3.4293 1.5936-7.4577-.3508-8.3548-4.038l-1.1432-4.6983c-.4821-1.9815-1.80852-3.6507-3.62772-4.5637l-4.31097-2.1637C.397882 37.899-.598315 33.5244 1.71559 30.5217l2.94838-3.826c1.24379-1.614 1.71705-3.6948 1.29452-5.6899l-1.00184-4.7306c-.78644-3.7135 2.00326-7.21976 5.78215-7.27676l4.8197-.07271c2.0342-.03069 3.9517-.95735 5.2434-2.53324l3.0616-3.73534Z" stroke="#F64F00" stroke-width=".919355"/><path d="m19.7413 26.4232.0063.0035.0064.0033c.8508.4392 1.7867.6557 2.7994.6557 1.0126 0 1.9403-.2165 2.7731-.658l.0038-.002c.8415-.4562 1.5166-1.0601 2.0136-1.8134l.0033-.0051c.4999-.7801.7506-1.6421.7506-2.5754 0-.9333-.2508-1.7876-.7539-2.5503-.4971-.7535-1.1729-1.348-2.0154-1.7842-.8327-.462-1.7613-.6892-2.7751-.6892-1.0157 0-1.954.228-2.8057.6893-.8239.4372-1.4886 1.0322-1.9847 1.7841l.3714.2451-.3714-.2451c-.5031.7627-.7539 1.617-.7539 2.5503s.2507 1.7953.7506 2.5754l.0033.0051c.4951.7504 1.1576 1.354 1.9783 1.8109Zm-.8627 11.0844-.2998.3443.3423.3022 1.849 1.6321.3645.3218.3008-.382 8.2525-10.4802 8.437-9.7852.2991-.347-.3459-.3003-1.8798-1.6322-.367-.3186-.2977.3841-8.0042 10.3267-8.6508 9.9343Zm12.7886 1.8218v.0001l.0083.0044c.8328.4415 1.7605.6581 2.7731.6581 1.0125 0 1.9402-.2166 2.773-.6581h.0001l.0037-.002c.8415-.4561 1.5166-1.0601 2.0136-1.8134.5031-.7626.7539-1.6169.7539-2.5502 0-.9323-.2502-1.7857-.7521-2.5476-.4964-.7736-1.1723-1.3796-2.0172-1.8171-.8327-.4621-1.7612-.6893-2.775-.6893-1.0147 0-1.944.2276-2.7773.6905-.8243.4379-1.4969 1.0425-2.0114 1.8105l-.0018.0027c-.5031.7627-.7539 1.6169-.7539 2.5503 0 .9333.2508 1.7876.7539 2.5502l-.0001.0001.0054.0078c.5145.7459 1.1848 1.3471 2.0038 1.803Zm3.973-2.8769h-.0001l-.0069.0085c-.3291.4035-.7149.5865-1.1846.5865-.4454 0-.8365-.1802-1.1917-.595-.3576-.4175-.5366-.9048-.5366-1.4842 0-.5794.179-1.0668.5366-1.4843l.0057-.0068c.3578-.4345.7477-.6184 1.186-.6184.4453 0 .8364.1802 1.1916.5949.3554.415.5366.9114.5366 1.5146 0 .5794-.179 1.0667-.5366 1.4842ZM23.7423 23.5497c-.3545.4123-.7447.5916-1.1889.5916-.4453 0-.8364-.1802-1.1916-.595-.3554-.4149-.5366-.9114-.5366-1.5145 0-.5794.179-1.0668.5366-1.4843.3552-.4147.7463-.595 1.1916-.595.4454 0 .8365.1803 1.1917.595.3576.4175.5366.9049.5366 1.4843 0 .5781-.1784 1.0779-.5394 1.5179Z" stroke="#F64F00" stroke-width=".919355"/></svg>