<svg width="50" height="50" viewBox="0 0 50 50" xmlns="http://www.w3.org/2000/svg"><rect x=".5" y=".5" width="49" height="49" rx="24.5"/><path clip-rule="evenodd" d="M21 35c1.1046 0 2-.8954 2-2s-.8954-2-2-2-2 .8954-2 2 .8954 2 2 2ZM31 35c1.1046 0 2-.8954 2-2s-.8954-2-2-2-2 .8954-2 2 .8954 2 2 2Z" stroke-linecap="round" stroke-linejoin="round"/><path d="M18.2455 19.3332H34l-1.5273 7.2712c-.1716.8235-.9376 1.4114-1.8182 1.3953h-9.609c-.9187.0074-1.6988-.6396-1.8182-1.508l-1.3818-9.9837c-.1186-.8618-.8883-1.5067-1.8-1.508H14" stroke-linecap="round" stroke-linejoin="round"/></svg>
