<svg width="261" height="28" viewBox="0 0 261 28" fill="none" xmlns="http://www.w3.org/2000/svg"><path fill-rule="evenodd" clip-rule="evenodd" d="M135.427.5h23.774l-4.982 10.2267c-2.125 3.8926-8.462 6.7942-16.704 6.7942h-17.51l-4.872 9.9437h-13.407l8.242-16.844h30.917l1.502-3.04329h-30.881C113.485 3.54329 119.932.5 128.357.5h7.07Zm74.655 0H179.202c-8.426 0-14.873 3.04329-16.851 7.07731h30.881l-1.503 3.04329H160.85l-3.371 6.9003h13.371l-22.419 9.9437h22.821l15.643-6.9712-3.407 6.9712c8.241 0 14.579-2.9017 16.704-6.7942l4.908-10.0498 1.503-3.04329.842-1.76932L210.082.5ZM33.7377.5H57.475l-5.6779 11.6776-7.4728 1.5216 5.7511 1.9109-2.4177 4.9541C45.6064 24.5275 39.1958 27.5 30.8804 27.5H0l4.87203-9.9436 11.90527 3.0432h17.5098l1.502-3.0432H18.2792L6.74022 13.6992 21.6126 10.656h17.51l1.5018-3.04325H23.1145L8.27876 10.656c.10991-.2477.47618-.99083 1.50185-3.04325C11.7587 3.57866 18.2059.535436 26.6312.535436L33.7377.5ZM203.488 27.4646l8.242-16.844h13.408l-4.835 9.9436h17.509l6.337-12.98689H213.27C215.907 2.69396 223.16.5 230.119.5H261l-9.817 20.0642h6.557c-2.052 3.9279-8.462 6.9004-16.777 6.9004h-37.475Zm-152.6433 0 8.2421-16.8086h30.917l1.5022-3.04325H60.5887C62.5668 3.57866 69.0137.535436 77.439.535436h30.881L100.077 17.3794s.477-.9554-1.501 3.0433c-1.9782 4.034-8.4253 7.0419-16.8144 7.0773l4.8718-9.9436H69.1237L64.2518 27.5H50.8447v-.0354Z" fill="#333"/></svg>
